<?xml version="1.0" encoding="UTF-8" standalone="no"?>
<svg
   width="192"
   height="192"
   viewBox="0 0 192 192"
   version="1.1"
   xml:space="preserve"
   id="SVGRoot"
   inkscape:export-filename="Desktop\logo_light.png"
   inkscape:export-xdpi="96"
   inkscape:export-ydpi="96"
   inkscape:version="1.4.2 (f4327f4, 2025-05-13)"
   sodipodi:docname="rysunek.svg"
   xmlns:inkscape="http://www.inkscape.org/namespaces/inkscape"
   xmlns:sodipodi="http://sodipodi.sourceforge.net/DTD/sodipodi-0.dtd"
   xmlns="http://www.w3.org/2000/svg"
   xmlns:svg="http://www.w3.org/2000/svg"><defs
   id="defs1" />
<sodipodi:namedview
   pagecolor="#a9a9a9"
   bordercolor="#292929"
   borderopacity="1"
   inkscape:showpageshadow="2"
   inkscape:pageopacity="0.0"
   inkscape:pagecheckerboard="0"
   inkscape:deskcolor="#232323"
   id="namedview1"
   inkscape:export-bgcolor="#00000000"
   showguides="true"
   inkscape:zoom="2.5361563"
   inkscape:cx="24.84074"
   inkscape:cy="127.16093"
   inkscape:window-width="1920"
   inkscape:window-height="1009"
   inkscape:window-x="-4"
   inkscape:window-y="1"
   inkscape:window-maximized="1"
   inkscape:current-layer="SVGRoot"><sodipodi:guide
     position="96,96"
     orientation="0,1"
     id="guide5"
     inkscape:locked="false"
     inkscape:label=""
     inkscape:color="rgb(0,134,229)" /><sodipodi:guide
     position="96,96"
     orientation="-1,0"
     id="guide6"
     inkscape:locked="false"
     inkscape:label=""
     inkscape:color="rgb(0,134,229)" /><inkscape:page
     x="0"
     y="0"
     width="192"
     height="192"
     id="page2"
     margin="0"
     bleed="0" /></sodipodi:namedview>
<style
   type="text/css"
   id="style1">
g.prefab path {
  vector-effect:non-scaling-stroke;
  -inkscape-stroke:hairline;
  fill: none;
  fill-opacity: 1;
  stroke-opacity: 1;
  stroke: #00349c;
}
</style>

<path
   id="rect1"
   style="fill:#1983fa;fill-opacity:1;stroke-width:0;stroke-dasharray:none;paint-order:stroke fill markers"
   d="m 32,16 c -8.864,0 -16,7.136 -16,16 v 128 c 0,8.864 7.136,16 16,16 h 128 c 8.864,0 16,-7.136 16,-16 V 32 c 0,-8.864 -7.136,-16 -16,-16 z m 8,16 h 112 c 4.432,0 8,3.568 8,8 v 112 c 0,4.432 -3.568,8 -8,8 H 40 c -4.432,0 -8,-3.568 -8,-8 V 40 c 0,-4.432 3.568,-8 8,-8 z" /><path
   id="rect1-2"
   style="fill:#1983fa;fill-opacity:1;stroke-width:0;stroke-dasharray:none;paint-order:stroke fill markers"
   inkscape:label="rect1-2"
   d="m 37.97929,22.854738 c -8.121301,0 -14.659388,6.590844 -14.659388,14.777678 V 155.85384 c 0,8.18683 6.538087,14.77768 14.659388,14.77768 H 155.2544 c 8.12129,0 14.65938,-6.59085 14.65938,-14.77768 V 37.632416 c 0,-8.186834 -6.53809,-14.777678 -14.65938,-14.777678 z" /><rect
   style="fill:none;stroke-width:0;stroke-dasharray:none;paint-order:stroke fill markers"
   id="rect2"
   width="98.420074"
   height="100.92937"
   x="42.936802"
   y="42.100372"
   ry="16"
   rx="16" /><rect
   style="fill:none;stroke-width:0;stroke-dasharray:none;paint-order:stroke fill markers"
   id="rect4"
   width="38.197025"
   height="45.724907"
   x="41.542751"
   y="39.59108"
   ry="7.5278811"
   rx="7.5278811" /><path
   id="rect5"
   style="fill:#18ff06;fill-opacity:1;stroke-width:0;stroke-dasharray:none;paint-order:stroke fill markers"
   d="m 94.237501,60.295834 c -2.35042,-2.350445 -6.13485,-2.350445 -8.48528,0 l -21.2132,21.213407 -12.72792,-12.728043 c -2.350426,-2.350446 -6.134861,-2.350446 -8.485284,0 -2.350423,2.350445 -2.350423,6.134917 0,8.485363 l 16.970564,16.970723 c 0.1469,0.146912 0.29973,0.284403 0.45713,0.412944 2.36107,1.928099 5.82463,1.790608 8.02815,-0.412944 l 25.45584,-25.456086 c 2.35043,-2.350446 2.35043,-6.134918 0,-8.485364 z" /><g
   id="g7"><rect
     style="fill:#ffffff;fill-opacity:1;stroke-width:0;stroke-dasharray:none;paint-order:stroke fill markers"
     id="rect6"
     width="96"
     height="9.6602879"
     x="48"
     y="108"
     ry="4.8301439"
     rx="4.8301439" /><rect
     style="fill:#ffffff;fill-opacity:1;stroke-width:0;stroke-dasharray:none;paint-order:stroke fill markers"
     id="rect6-1"
     width="96"
     height="9.6602879"
     x="48"
     y="124"
     ry="4.8301439"
     rx="4.8301439" /><rect
     style="fill:#ffffff;fill-opacity:1;stroke-width:0;stroke-dasharray:none;paint-order:stroke fill markers"
     id="rect6-7"
     width="96"
     height="9.6602879"
     x="48"
     y="140"
     ry="4.8301439"
     rx="4.8301439" /></g><rect
   style="fill:#ffffff;fill-opacity:1;stroke-width:0;stroke-dasharray:none;paint-order:stroke fill markers"
   id="rect7"
   width="12"
   height="16"
   x="52"
   y="6"
   rx="6"
   ry="6" /><rect
   style="fill:#ffffff;fill-opacity:1;stroke-width:0;stroke-dasharray:none;paint-order:stroke fill markers"
   id="rect7-2"
   width="12"
   height="16"
   x="128"
   y="6"
   rx="6"
   ry="6" /><circle
   style="fill:#ffffff;fill-opacity:1;stroke-width:0;stroke-dasharray:none;paint-order:stroke fill markers"
   id="path7"
   cx="128"
   cy="90"
   r="6" /><rect
   style="fill:#ffffff;fill-opacity:1;stroke-width:0;stroke-dasharray:none;paint-order:stroke fill markers"
   id="rect8"
   width="12"
   height="36"
   x="122"
   y="42"
   rx="6"
   ry="6" /></svg>
